<?xml version="1.0" encoding="UTF-8"?><svg id="f" xmlns="http://www.w3.org/2000/svg" viewBox="0 0 65.71 46.98"><defs><style>.i{fill:#fff;}</style></defs><path class="i" d="m53.79,46.98h8.98s-3.3-2.78-3.3-2.78c0,0-3.61.02-5.68,2.78Z"/><path class="i" d="m52.86,46.98h-8.98s3.3-2.78,3.3-2.78c0,0,3.61.02,5.68,2.78Z"/><path class="i" d="m65.53,25.35c-.08-.76-.17-1.52-.26-2.29-.35-2.92-.78-5.82-1.52-8.66-1.07-4.17-2.81-8.24-5.58-11.54-1.07-1.27-2.37-2.46-3.99-2.78-2.78-.54-5.34,1.63-8.15,2.03-1.89.27-3.94-.26-5.64.62,0,0,3.2,1.46,5.37,3.8,1.22,1.58,1.78,3.64,1.53,5.61-.27,2.08-1.37,3.95-2.26,5.84-1.64,3.48-2.66,7.34-2.41,11.18.07,1.05.36,2.26,1.31,2.71-.19-3.86.87-7.76,2.98-10.98.87-1.33,1.95-2.58,3.35-3.35,2.35-1.29,5.38-1,7.66.41,2.28,1.41,3.83,3.8,4.57,6.38.73,2.58.7,5.32.3,7.97-.57,3.75-1.87,7.39-3.82,10.66.62.36,1.44.21,2.04-.19.6-.4,1.01-1.01,1.38-1.63,2.93-4.84,3.72-10.26,3.13-15.81Zm-1.11-3.32c-.11-.42-.25-.84-.41-1.24-.19-.49-.41-.97-.64-1.42-.58-1.16-1.32-2.24-2.17-3.23-.28-.33-.57-.64-.87-.95-2.14-2.16-4.77-3.78-7.53-5.04-1.46-.66-3.07-1.33-3.82-2.75-.47-.87-.5-1.95-.16-2.89.35-.93,1.07-1.69,1.95-2.15.75-.38,1.61-.56,2.44-.44,1.01.13,1.94.65,2.73,1.29,1.61,1.29,2.77,3.05,3.75,4.86,1.37,2.52,2.45,5.17,3.29,7.9.36,1.16.67,2.34.94,3.52.13.58.26,1.17.38,1.76.05.24.08.51.13.78.09.33.16.66.2.99-.1-.3-.16-.65-.2-.99Z"/><rect class="i" x="1" y="8.23" width="43" height="7" rx="3.5" ry="3.5"/><path class="i" d="m39.62,29.17s0,.03.01.05c-.04.01-.09.01-.13.01H3.5c-1.93,0-3.5-1.57-3.5-3.5,0-.96.39-1.84,1.03-2.47.63-.64,1.51-1.03,2.47-1.03h36c.31,0,.61.04.89.12-.62,2.22-.92,4.52-.77,6.82Z"/><rect class="i" x="1" y="36.23" width="43" height="7" rx="3.5" ry="3.5"/></svg>