<?xml version="1.0" encoding="UTF-8"?><svg id="a" xmlns="http://www.w3.org/2000/svg" viewBox="0 0 48.34 48.34"><defs><style>.b{fill:#fff;}</style></defs><path class="b" d="m41.26,7.08c4.72,4.75,7.08,10.47,7.08,17.14s-2.38,12.28-7.13,17.02c-4.75,4.74-10.43,7.1-17.04,7.1s-12.28-2.37-16.96-7.1C2.54,36.5.13,30.83,0,24.22c0-6.61,2.37-12.3,7.12-17.07C11.86,2.38,17.54,0,24.17,0s12.35,2.36,17.09,7.08ZM24.19,1.76c-6.1,0-11.37,2.21-15.8,6.64S1.76,18.1,1.76,24.22c.13,6.1,2.38,11.36,6.74,15.76,4.36,4.4,9.59,6.6,15.7,6.6s11.38-2.2,15.78-6.6c4.4-4.4,6.6-9.66,6.6-15.76s-2.17-11.44-6.52-15.82c-4.41-4.43-9.7-6.64-15.87-6.64Zm2.39,38.11v-14.33h4.83l.71-5.57h-5.54v-3.12c0-.88.05-1.42.15-1.64,0-.08.08-.27.24-.56.36-.65,1.29-.98,2.78-.98h2.56v-4.98c-1.35-.16-2.78-.24-4.27-.24-2.9,0-4.96,1.06-6.18,3.17-.72,1.19-1.07,2.56-1.07,4.1v4.25h-4.79v5.57h4.79v14.33h5.79Z"/></svg>