<?xml version="1.0" encoding="UTF-8"?><svg id="a" xmlns="http://www.w3.org/2000/svg" viewBox="0 0 48.34 48.34"><defs><style>.b{fill:#fff;}</style></defs><path class="b" d="m41.26,7.08c4.72,4.75,7.08,10.47,7.08,17.14s-2.38,12.28-7.13,17.02c-4.75,4.74-10.43,7.1-17.04,7.1s-12.28-2.37-16.96-7.1C2.54,36.5.13,30.83,0,24.22c0-6.61,2.37-12.3,7.12-17.07C11.86,2.38,17.54,0,24.17,0s12.35,2.36,17.09,7.08ZM24.19,1.76c-6.1,0-11.37,2.21-15.8,6.64S1.76,18.1,1.76,24.22c.13,6.1,2.38,11.36,6.74,15.76,4.36,4.4,9.59,6.6,15.7,6.6s11.38-2.2,15.78-6.6c4.4-4.4,6.6-9.66,6.6-15.76s-2.17-11.44-6.52-15.82c-4.41-4.43-9.7-6.64-15.87-6.64Zm-10.23,15.26c.98,0,1.77-.28,2.38-.84.61-.56.92-1.25.92-2.06-.07-.88-.39-1.59-.96-2.14-.58-.54-1.32-.82-2.23-.82-.99,0-1.79.27-2.39.82-.6.55-.9,1.26-.9,2.14,0,.81.28,1.5.85,2.06.57.56,1.35.84,2.34.84Zm2.88,2.42h-5.76v17.21h5.76v-17.21Zm20.63,7.37c0-2.69-.61-4.65-1.84-5.91-1.23-1.25-2.8-1.88-4.7-1.88-1.58,0-2.74.33-3.48.98-.74.65-1.31,1.28-1.7,1.88v-2.44h-5.71v17.21h5.71v-10.38c0-.24.05-.46.15-.63.23-.54.58-1.03,1.05-1.46.47-.44,1.11-.66,1.93-.66,1.03,0,1.76.37,2.2,1.11.44.74.66,1.69.66,2.84v9.18h5.74v-9.84Zm-11.79-4.83c0-.06.02-.1.07-.1v.1h-.07Z"/></svg>