<?xml version="1.0" encoding="UTF-8"?><svg id="a" xmlns="http://www.w3.org/2000/svg" viewBox="0 0 48.34 48.34"><defs><style>.b{fill:#fff;}.c{fill:none;stroke:#fff;stroke-miterlimit:10;}</style></defs><circle class="c" cx="24.32" cy="23.8" r="6"/><circle class="b" cx="31.82" cy="16.3" r="1"/><rect class="c" x="12.32" y="11.8" width="24" height="24" rx="5.04" ry="5.04"/><path class="b" d="m41.26,7.08c4.72,4.75,7.08,10.47,7.08,17.14s-2.38,12.28-7.13,17.02c-4.75,4.74-10.43,7.1-17.04,7.1s-12.28-2.37-16.96-7.1C2.54,36.5.13,30.83,0,24.22c0-6.61,2.37-12.3,7.12-17.07C11.86,2.38,17.54,0,24.17,0s12.35,2.36,17.09,7.08ZM24.19,1.76c-6.1,0-11.37,2.21-15.8,6.64S1.76,18.1,1.76,24.22c.13,6.1,2.38,11.36,6.74,15.76,4.36,4.4,9.59,6.6,15.7,6.6s11.38-2.2,15.78-6.6c4.4-4.4,6.6-9.66,6.6-15.76s-2.17-11.44-6.52-15.82c-4.41-4.43-9.7-6.64-15.87-6.64Z"/></svg>