<?xml version="1.0" encoding="UTF-8"?><svg id="f" xmlns="http://www.w3.org/2000/svg" viewBox="0 0 113.96 72.39"><defs><style>.i{fill:#fff;}</style></defs><path class="i" d="m15.81,13.79c0,.97-.19,1.82-.56,2.55-.37.73-.88,1.35-1.51,1.85-.63.5-1.35.88-2.18,1.14-.82.26-1.67.38-2.55.38H1.33V0h7.39c.8,0,1.57.09,2.31.26.74.17,1.4.46,1.97.85.57.39,1.03.9,1.37,1.52.34.62.51,1.38.51,2.27,0,.95-.23,1.76-.68,2.42-.46.67-1.1,1.19-1.94,1.57,1.17.35,2.05.95,2.65,1.81.6.86.9,1.89.9,3.09Zm-5.99-7.91c0-.62-.22-1.07-.67-1.34-.45-.27-1.03-.41-1.74-.41h-.74v3.75h.74c.71,0,1.29-.15,1.74-.45.45-.3.67-.82.67-1.55Zm.66,7.42c0-.71-.22-1.25-.66-1.61-.44-.36-1.07-.55-1.89-.55h-1.26v4.43h1.04c.36,0,.72-.04,1.05-.11.34-.07.63-.2.89-.38.26-.18.46-.41.6-.7.15-.28.22-.64.22-1.08Z"/><path class="i" d="m18.3,19.71V0h4.82v19.71h-4.82Z"/><path class="i" d="m37.32,19.71v-.9c-1.15.84-2.55,1.26-4.21,1.26-1.06,0-2.04-.18-2.96-.53-.91-.36-1.71-.86-2.38-1.51-.68-.65-1.2-1.43-1.59-2.34-.38-.91-.57-1.92-.57-3.01s.19-2.13.57-3.05c.38-.92.91-1.71,1.59-2.37.67-.66,1.47-1.17,2.39-1.53.92-.36,1.92-.55,3-.55.78,0,1.53.1,2.24.29.71.19,1.35.47,1.92.84v-.77h4.82v14.17h-4.82Zm0-8.9c0-.33-.11-.62-.34-.89-.23-.26-.51-.49-.83-.67s-.68-.32-1.05-.41c-.37-.09-.7-.14-.97-.14-1.35,0-2.3.36-2.86,1.08-.56.72-.83,1.69-.83,2.9s.28,2.19.85,2.85c.57.66,1.51,1,2.82,1,.33,0,.68-.05,1.07-.15.38-.1.73-.25,1.05-.45.32-.2.58-.45.79-.75.21-.3.31-.64.31-1.02v-3.35Z"/><path class="i" d="m58.45,16.68c-.4.74-.92,1.36-1.55,1.86-.63.5-1.35.88-2.16,1.14-.81.26-1.68.38-2.61.38-1.08,0-2.07-.18-2.98-.55-.91-.36-1.71-.88-2.38-1.53-.68-.66-1.2-1.44-1.57-2.34-.37-.9-.56-1.89-.56-2.97s.19-2.1.56-3.02c.37-.92.9-1.71,1.57-2.37.67-.66,1.47-1.17,2.39-1.55.92-.37,1.93-.56,3.02-.56.89,0,1.75.12,2.56.34.81.23,1.54.57,2.18,1.03.64.46,1.16,1.05,1.57,1.76.41.72.66,1.55.75,2.5h-4.57c-.07-.67-.33-1.19-.77-1.56-.44-.36-.99-.55-1.64-.55-.58,0-1.06.12-1.44.35-.37.24-.66.54-.86.91-.2.37-.34.8-.41,1.27-.07.47-.11.95-.11,1.45s.04.94.11,1.39c.07.45.21.86.42,1.23.21.36.49.66.85.89.36.23.83.34,1.41.34.69,0,1.25-.23,1.68-.7.43-.47.68-1.03.75-1.68h4.57c-.13.95-.39,1.79-.79,2.53Z"/><path class="i" d="m68.8,19.71l-2.24-3.23v3.23h-4.82V0h4.82v8.73l2.24-3.2h5.23l-4.87,7.09,4.87,7.09h-5.23Z"/><path class="i" d="m.58,44.13v-17.3h7.63c.85,0,1.61.14,2.29.43.68.29,1.26.69,1.75,1.2.49.51.86,1.11,1.12,1.78.26.68.39,1.41.39,2.19s-.13,1.51-.39,2.17c-.26.67-.63,1.24-1.12,1.72-.49.48-1.07.85-1.75,1.12-.68.27-1.44.4-2.29.4h-4.01v6.28H.58Zm7.06-9.22c1.04,0,1.79-.24,2.25-.72.46-.48.69-1.1.69-1.86s-.23-1.33-.69-1.8c-.46-.47-1.21-.7-2.25-.7h-3.44v5.08h3.44Z"/><path class="i" d="m17.54,38.61c.05.97.33,1.75.85,2.32.51.57,1.19.86,2.02.86.56,0,1.05-.13,1.47-.38.43-.25.7-.6.82-1.05h3.49c-.4,1.32-1.09,2.34-2.08,3.05s-2.17,1.07-3.54,1.07c-4.27,0-6.41-2.33-6.41-6.98,0-.99.14-1.88.42-2.68.28-.8.68-1.48,1.21-2.06.53-.57,1.18-1.01,1.94-1.32.76-.3,1.64-.46,2.63-.46,1.98,0,3.48.63,4.49,1.9,1.02,1.27,1.52,3.18,1.52,5.73h-8.83Zm5.34-2.14c-.02-.47-.1-.88-.25-1.24-.15-.36-.34-.65-.59-.89-.24-.23-.52-.41-.83-.52-.31-.11-.63-.17-.96-.17-.68,0-1.26.25-1.76.74s-.78,1.19-.85,2.07h5.24Z"/><path class="i" d="m35.61,44.13v-7.76c0-.99-.17-1.66-.49-2.01-.33-.35-.89-.52-1.69-.52-1.75,0-2.63.98-2.63,2.94v7.35h-3.39v-12.82h3.23v1.88c.4-.73.93-1.28,1.59-1.65.66-.37,1.51-.56,2.55-.56.61,0,1.17.09,1.69.27.52.18.97.46,1.34.82.37.36.67.81.89,1.34.22.53.33,1.14.33,1.84v8.88h-3.41Z"/><path class="i" d="m49.31,42.41c-.24.57-.68,1.02-1.32,1.34-.63.32-1.37.48-2.2.48-1.06,0-1.95-.19-2.67-.56-.72-.37-1.3-.86-1.75-1.47-.44-.61-.76-1.31-.96-2.11-.2-.8-.3-1.61-.3-2.45,0-.99.15-1.9.44-2.72.3-.82.69-1.53,1.2-2.11.5-.58,1.09-1.03,1.77-1.35.68-.32,1.41-.48,2.19-.48,1.6,0,2.8.64,3.59,1.93v-1.59h3.39v12.95c0,.97-.16,1.83-.49,2.57-.33.74-.78,1.35-1.35,1.85s-1.25.87-2.03,1.13-1.61.39-2.5.39-1.71-.13-2.47-.38c-.76-.25-1.42-.61-1.97-1.07-.55-.46-.98-1.02-1.29-1.68-.31-.66-.47-1.41-.47-2.24h3.15c0,.78.26,1.38.77,1.81.51.43,1.19.64,2.04.64.9,0,1.67-.25,2.29-.74.63-.49.94-1.17.94-2.02v-2.11Zm-2.79-.83c.83,0,1.52-.32,2.07-.95.55-.63.82-1.5.82-2.59,0-2.74-.96-4.12-2.89-4.12s-2.89,1.3-2.89,3.91c0,1.15.27,2.06.82,2.74.55.68,1.24,1.02,2.07,1.02Z"/><path class="i" d="m62.39,44.13v-1.8c-.87,1.42-2.2,2.14-3.99,2.14-.64,0-1.23-.11-1.76-.34-.53-.23-.99-.55-1.37-.96-.38-.42-.68-.91-.9-1.48-.22-.57-.33-1.22-.33-1.93v-8.44h3.39v7.92c0,1.6.72,2.4,2.16,2.4.87,0,1.52-.27,1.97-.82.44-.55.66-1.25.66-2.1v-7.4h3.36v12.82h-3.2Z"/><path class="i" d="m67.03,29.78v-3.15h3.39v3.15h-3.39Zm0,14.35v-12.82h3.39v12.82h-3.39Z"/><path class="i" d="m80.05,44.13v-7.76c0-.99-.17-1.66-.49-2.01-.33-.35-.89-.52-1.69-.52-1.75,0-2.63.98-2.63,2.94v7.35h-3.39v-12.82h3.23v1.88c.4-.73.93-1.28,1.59-1.65.66-.37,1.51-.56,2.55-.56.61,0,1.17.09,1.69.27.52.18.97.46,1.34.82.37.36.67.81.89,1.34.22.53.33,1.14.33,1.84v8.88h-3.41Z"/><path class="i" d="m10.24,58.93c-.09-.89-.41-1.55-.96-1.98-.56-.43-1.39-.65-2.5-.65-2.05,0-3.07.7-3.07,2.11,0,.5.21.92.64,1.26.43.34,1.11.62,2.04.85,1.11.26,2.07.5,2.89.73.82.23,1.56.49,2.24.78.38.16.74.35,1.08.59.34.23.63.53.86.87.23.35.42.76.56,1.25.14.49.21,1.08.21,1.77,0,.83-.17,1.57-.52,2.21-.35.64-.82,1.19-1.41,1.63-.59.44-1.29.78-2.08,1.02-.8.23-1.64.35-2.53.35-2.52,0-4.41-.49-5.68-1.46-1.27-.97-1.94-2.41-2.01-4.32h3.49c.02.89.38,1.58,1.08,2.1.7.51,1.58.77,2.64.77,1.15,0,2.01-.21,2.6-.63.59-.42.89-.98.89-1.69,0-.28-.03-.53-.1-.77-.07-.23-.2-.45-.4-.64-.2-.19-.47-.36-.82-.51-.35-.15-.8-.28-1.35-.4-1.32-.28-2.46-.56-3.42-.85-.96-.29-1.76-.64-2.38-1.07-.62-.43-1.09-.94-1.38-1.55-.3-.61-.44-1.38-.44-2.32,0-.71.13-1.38.39-2.01.26-.63.66-1.17,1.2-1.63.54-.46,1.2-.82,1.99-1.09.79-.27,1.72-.4,2.8-.4s1.98.13,2.81.4c.83.27,1.55.65,2.15,1.15.6.49,1.06,1.09,1.39,1.8s.51,1.48.55,2.33h-3.44Z"/><path class="i" d="m22.32,62.68h3.15v3.65c0,.68-.1,1.32-.3,1.94-.2.62-.51,1.16-.94,1.64-.43.48-.96.86-1.61,1.13s-1.43.42-2.33.42-1.74-.14-2.4-.42c-.66-.28-1.2-.65-1.63-1.12-.43-.47-.73-1.02-.92-1.64-.19-.63-.29-1.28-.29-1.98v-11.46h3.33v3.46h7.08v2.4h-7.08v5.26c0,.82.15,1.45.46,1.89.3.44.8.66,1.5.66s1.18-.22,1.5-.65c.32-.43.48-1.05.48-1.85v-3.33Z"/><path class="i" d="m35.03,71.12v-1.8c-.87,1.42-2.2,2.14-3.99,2.14-.64,0-1.23-.11-1.76-.34-.53-.23-.99-.55-1.37-.96-.38-.42-.68-.91-.9-1.48-.22-.57-.33-1.22-.33-1.93v-8.44h3.39v7.92c0,1.6.72,2.4,2.16,2.4.87,0,1.52-.27,1.97-.82.44-.55.66-1.25.66-2.1v-7.4h3.36v12.82h-3.2Z"/><path class="i" d="m48.47,71.12l-.03-1.56c-.78,1.27-1.97,1.9-3.57,1.9-.82,0-1.56-.16-2.24-.47-.68-.31-1.26-.76-1.75-1.35-.49-.59-.87-1.31-1.15-2.16-.28-.85-.42-1.81-.42-2.89,0-.97.12-1.86.35-2.67.23-.81.58-1.51,1.03-2.1.45-.59,1-1.05,1.65-1.37.65-.32,1.39-.48,2.23-.48,1.58,0,2.85.67,3.8,2.01v-6.36h3.33v17.5h-3.26Zm-2.81-2.42c.82,0,1.5-.34,2.04-1.02.55-.68.82-1.56.82-2.66,0-2.78-.95-4.17-2.84-4.17s-2.92,1.32-2.92,3.96c0,1.15.27,2.08.81,2.8.54.72,1.23,1.08,2.08,1.08Z"/><path class="i" d="m53.16,56.77v-3.15h3.39v3.15h-3.39Zm0,14.35v-12.82h3.39v12.82h-3.39Z"/><path class="i" d="m64.28,71.46c-1.04,0-1.97-.17-2.79-.49-.82-.33-1.51-.79-2.07-1.38-.56-.59-.99-1.3-1.29-2.14-.3-.83-.44-1.74-.44-2.73s.15-1.93.46-2.76c.3-.83.74-1.55,1.32-2.14.57-.59,1.26-1.05,2.07-1.37.81-.32,1.72-.48,2.75-.48s1.91.16,2.71.48c.8.32,1.48.77,2.04,1.35.56.58,1,1.29,1.3,2.12.3.83.46,1.76.46,2.79s-.15,1.95-.46,2.77c-.3.83-.74,1.53-1.3,2.12-.56.59-1.25,1.05-2.06,1.37-.81.32-1.71.48-2.7.48Zm0-2.84c2.07,0,3.1-1.3,3.1-3.91s-1.03-3.88-3.1-3.88-3.1,1.29-3.1,3.88,1.03,3.91,3.1,3.91Z"/><path class="i" d="m79.6,62.19c-.09-.59-.31-1.02-.66-1.29-.36-.27-.9-.4-1.63-.4s-1.22.08-1.58.25c-.36.17-.53.45-.53.85,0,.35.18.63.53.83.36.21.87.41,1.55.6,1.11.31,2.05.58,2.81.79.76.22,1.38.47,1.84.77.46.3.79.66.99,1.11.2.44.3,1.04.3,1.78,0,1.15-.48,2.1-1.43,2.85-.96.76-2.37,1.13-4.25,1.13-.92,0-1.75-.1-2.5-.31-.75-.21-1.39-.51-1.91-.9-.53-.39-.94-.86-1.22-1.41-.29-.55-.44-1.16-.46-1.84h3.49c0,.61.24,1.08.72,1.41.48.33,1.1.49,1.86.49.64,0,1.19-.1,1.65-.3.46-.2.69-.51.69-.92,0-.47-.17-.81-.51-1.02-.34-.21-.86-.39-1.55-.55-1.25-.28-2.26-.57-3.02-.87-.76-.3-1.36-.64-1.78-1-.43-.36-.71-.76-.86-1.2-.15-.43-.22-.92-.22-1.46,0-.49.1-.95.3-1.38.2-.43.52-.82.95-1.15.43-.33,1-.59,1.69-.79.69-.2,1.55-.3,2.55-.3,1.84,0,3.19.37,4.04,1.12.85.75,1.32,1.78,1.41,3.1h-3.26Z"/><path class="i" d="m102.05,72.39h8.98s-3.3-2.78-3.3-2.78c0,0-3.61.02-5.68,2.78Z"/><path class="i" d="m101.11,72.38h-8.98s3.3-2.78,3.3-2.78c0,0,3.61.02,5.68,2.78Z"/><path class="i" d="m113.78,50.75c-.08-.76-.17-1.52-.26-2.29-.35-2.92-.78-5.82-1.52-8.66-1.07-4.17-2.81-8.24-5.58-11.54-1.07-1.27-2.37-2.46-3.99-2.78-2.78-.54-5.34,1.63-8.15,2.03-1.89.27-3.94-.26-5.64.62,0,0,3.2,1.46,5.37,3.8,1.22,1.58,1.78,3.64,1.53,5.61-.27,2.08-1.37,3.95-2.26,5.84-1.64,3.48-2.66,7.34-2.41,11.18.07,1.05.36,2.26,1.31,2.71-.19-3.86.87-7.76,2.98-10.98.87-1.33,1.95-2.58,3.35-3.35,2.35-1.29,5.38-1,7.66.41,2.28,1.41,3.83,3.8,4.57,6.38.73,2.58.7,5.32.3,7.97-.57,3.75-1.87,7.39-3.82,10.66.62.36,1.44.21,2.04-.19.6-.4,1.01-1.01,1.38-1.63,2.93-4.84,3.72-10.26,3.13-15.81Zm-1.11-3.32c-.11-.42-.25-.84-.41-1.24-.19-.49-.41-.97-.64-1.42-.58-1.16-1.32-2.24-2.17-3.23-.28-.33-.57-.64-.87-.95-2.14-2.16-4.77-3.78-7.53-5.04-1.46-.66-3.07-1.33-3.82-2.75-.47-.87-.5-1.95-.16-2.89.35-.93,1.07-1.69,1.95-2.15.75-.38,1.61-.56,2.44-.44,1.01.13,1.94.65,2.73,1.29,1.61,1.29,2.77,3.05,3.75,4.86,1.37,2.52,2.45,5.17,3.29,7.9.36,1.16.67,2.34.94,3.52.13.58.26,1.17.38,1.76.05.24.08.51.13.78.09.33.16.66.2.99-.1-.3-.16-.65-.2-.99Z"/></svg>